<mxfile host="Electron" modified="2023-12-14T15:37:21.744Z" agent="Mozilla/5.0 (Windows NT 10.0; Win64; x64) AppleWebKit/537.36 (KHTML, like Gecko) draw.io/22.1.2 Chrome/114.0.5735.289 Electron/25.9.4 Safari/537.36" etag="znKGnRDbllBe72XINWLa" version="22.1.2" type="device">
  <diagram name="Page-1" id="uXOS0LW-BCHQ6-Janxh_">
    <mxGraphModel dx="2299" dy="1171" grid="1" gridSize="10" guides="1" tooltips="1" connect="1" arrows="1" fold="1" page="1" pageScale="1" pageWidth="850" pageHeight="1100" math="0" shadow="0">
      <root>
        <mxCell id="0" />
        <mxCell id="1" parent="0" />
        <mxCell id="AYv8p0lp2vQmEgdWVu1G-262" style="edgeStyle=orthogonalEdgeStyle;rounded=0;orthogonalLoop=1;jettySize=auto;html=1;entryX=0.5;entryY=0;entryDx=0;entryDy=0;" parent="1" source="AYv8p0lp2vQmEgdWVu1G-8" target="AYv8p0lp2vQmEgdWVu1G-260" edge="1">
          <mxGeometry relative="1" as="geometry" />
        </mxCell>
        <mxCell id="AYv8p0lp2vQmEgdWVu1G-263" style="edgeStyle=orthogonalEdgeStyle;rounded=0;orthogonalLoop=1;jettySize=auto;html=1;entryX=0;entryY=0.5;entryDx=0;entryDy=0;" parent="1" source="AYv8p0lp2vQmEgdWVu1G-8" target="AYv8p0lp2vQmEgdWVu1G-258" edge="1">
          <mxGeometry relative="1" as="geometry" />
        </mxCell>
        <mxCell id="AYv8p0lp2vQmEgdWVu1G-8" value="&lt;font color=&quot;#66cc00&quot;&gt;&lt;span style=&quot;font-size: 14px;&quot;&gt;&lt;b&gt;en&lt;br&gt;&lt;/b&gt;&lt;/span&gt;&lt;/font&gt;" style="text;html=1;align=center;verticalAlign=middle;resizable=0;points=[];autosize=1;strokeColor=none;fillColor=none;" parent="1" vertex="1">
          <mxGeometry x="35" width="40" height="30" as="geometry" />
        </mxCell>
        <mxCell id="AYv8p0lp2vQmEgdWVu1G-17" value="" style="edgeStyle=orthogonalEdgeStyle;rounded=0;orthogonalLoop=1;jettySize=auto;html=1;entryX=0.5;entryY=0;entryDx=0;entryDy=0;" parent="1" source="AYv8p0lp2vQmEgdWVu1G-19" target="AYv8p0lp2vQmEgdWVu1G-20" edge="1">
          <mxGeometry relative="1" as="geometry" />
        </mxCell>
        <mxCell id="AYv8p0lp2vQmEgdWVu1G-192" value="/3" style="edgeLabel;html=1;align=center;verticalAlign=middle;resizable=0;points=[];" parent="AYv8p0lp2vQmEgdWVu1G-17" vertex="1" connectable="0">
          <mxGeometry x="-0.2" y="-2" relative="1" as="geometry">
            <mxPoint as="offset" />
          </mxGeometry>
        </mxCell>
        <mxCell id="AYv8p0lp2vQmEgdWVu1G-19" value="Counter++" style="rounded=0;whiteSpace=wrap;html=1;" parent="1" vertex="1">
          <mxGeometry x="70" y="170" width="120" height="60" as="geometry" />
        </mxCell>
        <mxCell id="AYv8p0lp2vQmEgdWVu1G-153" style="edgeStyle=orthogonalEdgeStyle;rounded=0;orthogonalLoop=1;jettySize=auto;html=1;entryX=0;entryY=0.25;entryDx=0;entryDy=0;" parent="1" source="AYv8p0lp2vQmEgdWVu1G-20" target="AYv8p0lp2vQmEgdWVu1G-22" edge="1">
          <mxGeometry relative="1" as="geometry">
            <Array as="points">
              <mxPoint x="130" y="350" />
              <mxPoint x="50" y="350" />
              <mxPoint x="50" y="175" />
            </Array>
          </mxGeometry>
        </mxCell>
        <mxCell id="AYv8p0lp2vQmEgdWVu1G-20" value="== 4" style="rounded=0;whiteSpace=wrap;html=1;" parent="1" vertex="1">
          <mxGeometry x="95" y="280" width="70" height="60" as="geometry" />
        </mxCell>
        <mxCell id="AYv8p0lp2vQmEgdWVu1G-21" value="" style="triangle;whiteSpace=wrap;html=1;direction=east;" parent="1" vertex="1">
          <mxGeometry x="70" y="210" width="20" height="20" as="geometry" />
        </mxCell>
        <mxCell id="AYv8p0lp2vQmEgdWVu1G-22" value="ld" style="text;html=1;strokeColor=none;fillColor=none;align=center;verticalAlign=middle;whiteSpace=wrap;rounded=0;" parent="1" vertex="1">
          <mxGeometry x="70" y="170" width="35" height="20" as="geometry" />
        </mxCell>
        <mxCell id="AYv8p0lp2vQmEgdWVu1G-23" value="en" style="text;html=1;strokeColor=none;fillColor=none;align=center;verticalAlign=middle;whiteSpace=wrap;rounded=0;" parent="1" vertex="1">
          <mxGeometry x="70" y="190" width="35" height="20" as="geometry" />
        </mxCell>
        <mxCell id="AYv8p0lp2vQmEgdWVu1G-24" value="D" style="text;html=1;strokeColor=none;fillColor=none;align=center;verticalAlign=middle;whiteSpace=wrap;rounded=0;" parent="1" vertex="1">
          <mxGeometry x="112.5" y="170" width="35" height="20" as="geometry" />
        </mxCell>
        <mxCell id="AYv8p0lp2vQmEgdWVu1G-25" style="edgeStyle=orthogonalEdgeStyle;rounded=0;orthogonalLoop=1;jettySize=auto;html=1;exitX=0.5;exitY=1;exitDx=0;exitDy=0;entryX=0;entryY=0.5;entryDx=0;entryDy=0;" parent="1" source="AYv8p0lp2vQmEgdWVu1G-20" target="AYv8p0lp2vQmEgdWVu1G-36" edge="1">
          <mxGeometry relative="1" as="geometry">
            <mxPoint x="130" y="390" as="targetPoint" />
            <Array as="points">
              <mxPoint x="130" y="350" />
              <mxPoint x="30" y="350" />
              <mxPoint x="30" y="490" />
            </Array>
          </mxGeometry>
        </mxCell>
        <mxCell id="AYv8p0lp2vQmEgdWVu1G-26" value="idx_i" style="text;html=1;align=center;verticalAlign=middle;resizable=0;points=[];autosize=1;strokeColor=none;fillColor=none;" parent="1" vertex="1">
          <mxGeometry x="80" y="230" width="50" height="30" as="geometry" />
        </mxCell>
        <mxCell id="AYv8p0lp2vQmEgdWVu1G-151" style="edgeStyle=orthogonalEdgeStyle;rounded=0;orthogonalLoop=1;jettySize=auto;html=1;entryX=0.5;entryY=0;entryDx=0;entryDy=0;" parent="1" source="AYv8p0lp2vQmEgdWVu1G-30" target="AYv8p0lp2vQmEgdWVu1G-32" edge="1">
          <mxGeometry relative="1" as="geometry" />
        </mxCell>
        <mxCell id="AYv8p0lp2vQmEgdWVu1G-152" value="/7" style="edgeLabel;html=1;align=center;verticalAlign=middle;resizable=0;points=[];" parent="AYv8p0lp2vQmEgdWVu1G-151" vertex="1" connectable="0">
          <mxGeometry x="-0.16" relative="1" as="geometry">
            <mxPoint as="offset" />
          </mxGeometry>
        </mxCell>
        <mxCell id="AYv8p0lp2vQmEgdWVu1G-172" style="edgeStyle=orthogonalEdgeStyle;rounded=0;orthogonalLoop=1;jettySize=auto;html=1;entryX=0;entryY=0.75;entryDx=0;entryDy=0;" parent="1" source="AYv8p0lp2vQmEgdWVu1G-30" target="AYv8p0lp2vQmEgdWVu1G-171" edge="1">
          <mxGeometry relative="1" as="geometry">
            <Array as="points">
              <mxPoint x="129" y="550" />
              <mxPoint x="265" y="550" />
              <mxPoint x="265" y="420" />
            </Array>
          </mxGeometry>
        </mxCell>
        <mxCell id="AYv8p0lp2vQmEgdWVu1G-30" value="Counter--" style="rounded=0;whiteSpace=wrap;html=1;" parent="1" vertex="1">
          <mxGeometry x="69" y="460" width="120" height="60" as="geometry" />
        </mxCell>
        <mxCell id="AYv8p0lp2vQmEgdWVu1G-320" style="edgeStyle=orthogonalEdgeStyle;rounded=0;orthogonalLoop=1;jettySize=auto;html=1;entryX=0.75;entryY=0;entryDx=0;entryDy=0;" parent="1" source="AYv8p0lp2vQmEgdWVu1G-32" target="AYv8p0lp2vQmEgdWVu1G-312" edge="1">
          <mxGeometry relative="1" as="geometry">
            <Array as="points">
              <mxPoint x="129" y="720" />
              <mxPoint x="-12" y="720" />
            </Array>
          </mxGeometry>
        </mxCell>
        <mxCell id="AYv8p0lp2vQmEgdWVu1G-32" value="&lt;b&gt;==&amp;nbsp; 63&lt;/b&gt;" style="rounded=0;whiteSpace=wrap;html=1;" parent="1" vertex="1">
          <mxGeometry x="94" y="570" width="70" height="60" as="geometry" />
        </mxCell>
        <mxCell id="AYv8p0lp2vQmEgdWVu1G-33" value="" style="triangle;whiteSpace=wrap;html=1;direction=east;" parent="1" vertex="1">
          <mxGeometry x="69" y="500" width="20" height="20" as="geometry" />
        </mxCell>
        <mxCell id="AYv8p0lp2vQmEgdWVu1G-35" value="ld" style="text;html=1;strokeColor=none;fillColor=none;align=center;verticalAlign=middle;whiteSpace=wrap;rounded=0;" parent="1" vertex="1">
          <mxGeometry x="69" y="460" width="35" height="20" as="geometry" />
        </mxCell>
        <mxCell id="AYv8p0lp2vQmEgdWVu1G-36" value="en" style="text;html=1;strokeColor=none;fillColor=none;align=center;verticalAlign=middle;whiteSpace=wrap;rounded=0;" parent="1" vertex="1">
          <mxGeometry x="69" y="480" width="35" height="20" as="geometry" />
        </mxCell>
        <mxCell id="AYv8p0lp2vQmEgdWVu1G-37" value="D" style="text;html=1;strokeColor=none;fillColor=none;align=center;verticalAlign=middle;whiteSpace=wrap;rounded=0;" parent="1" vertex="1">
          <mxGeometry x="111.5" y="460" width="35" height="20" as="geometry" />
        </mxCell>
        <mxCell id="AYv8p0lp2vQmEgdWVu1G-39" value="idx_o" style="text;html=1;align=center;verticalAlign=middle;resizable=0;points=[];autosize=1;strokeColor=none;fillColor=none;" parent="1" vertex="1">
          <mxGeometry x="65" y="530" width="50" height="30" as="geometry" />
        </mxCell>
        <mxCell id="AYv8p0lp2vQmEgdWVu1G-66" style="edgeStyle=orthogonalEdgeStyle;rounded=0;orthogonalLoop=1;jettySize=auto;html=1;entryX=0.5;entryY=0;entryDx=0;entryDy=0;" parent="1" source="AYv8p0lp2vQmEgdWVu1G-68" target="AYv8p0lp2vQmEgdWVu1G-24" edge="1">
          <mxGeometry relative="1" as="geometry" />
        </mxCell>
        <mxCell id="AYv8p0lp2vQmEgdWVu1G-67" value="/3" style="edgeLabel;html=1;align=center;verticalAlign=middle;resizable=0;points=[];" parent="AYv8p0lp2vQmEgdWVu1G-66" vertex="1" connectable="0">
          <mxGeometry x="0.4828" y="-3" relative="1" as="geometry">
            <mxPoint x="3" y="-7" as="offset" />
          </mxGeometry>
        </mxCell>
        <mxCell id="AYv8p0lp2vQmEgdWVu1G-68" value="0" style="text;html=1;align=center;verticalAlign=middle;resizable=0;points=[];autosize=1;strokeColor=none;fillColor=none;" parent="1" vertex="1">
          <mxGeometry x="115" y="110" width="30" height="30" as="geometry" />
        </mxCell>
        <mxCell id="AYv8p0lp2vQmEgdWVu1G-149" style="edgeStyle=orthogonalEdgeStyle;rounded=0;orthogonalLoop=1;jettySize=auto;html=1;entryX=0.5;entryY=0;entryDx=0;entryDy=0;" parent="1" source="AYv8p0lp2vQmEgdWVu1G-148" target="AYv8p0lp2vQmEgdWVu1G-37" edge="1">
          <mxGeometry relative="1" as="geometry" />
        </mxCell>
        <mxCell id="AYv8p0lp2vQmEgdWVu1G-150" value="/7" style="edgeLabel;html=1;align=center;verticalAlign=middle;resizable=0;points=[];" parent="AYv8p0lp2vQmEgdWVu1G-149" vertex="1" connectable="0">
          <mxGeometry x="-0.1605" y="-1" relative="1" as="geometry">
            <mxPoint as="offset" />
          </mxGeometry>
        </mxCell>
        <mxCell id="AYv8p0lp2vQmEgdWVu1G-148" value="107" style="text;html=1;align=center;verticalAlign=middle;resizable=0;points=[];autosize=1;strokeColor=none;fillColor=none;" parent="1" vertex="1">
          <mxGeometry x="109.5" y="390" width="40" height="30" as="geometry" />
        </mxCell>
        <mxCell id="AYv8p0lp2vQmEgdWVu1G-158" value="&lt;b&gt;mul_f&lt;/b&gt;" style="rounded=0;whiteSpace=wrap;html=1;" parent="1" vertex="1">
          <mxGeometry x="605" y="291.25" width="120" height="120" as="geometry" />
        </mxCell>
        <mxCell id="AYv8p0lp2vQmEgdWVu1G-159" value="in_0" style="text;html=1;strokeColor=none;fillColor=none;align=center;verticalAlign=middle;whiteSpace=wrap;rounded=0;" parent="1" vertex="1">
          <mxGeometry x="615" y="291.25" width="40" height="30" as="geometry" />
        </mxCell>
        <mxCell id="AYv8p0lp2vQmEgdWVu1G-160" value="in_1" style="text;html=1;strokeColor=none;fillColor=none;align=center;verticalAlign=middle;whiteSpace=wrap;rounded=0;" parent="1" vertex="1">
          <mxGeometry x="675" y="291.25" width="40" height="30" as="geometry" />
        </mxCell>
        <mxCell id="AYv8p0lp2vQmEgdWVu1G-272" style="edgeStyle=orthogonalEdgeStyle;rounded=0;orthogonalLoop=1;jettySize=auto;html=1;entryX=0.75;entryY=0;entryDx=0;entryDy=0;" parent="1" source="AYv8p0lp2vQmEgdWVu1G-161" target="AYv8p0lp2vQmEgdWVu1G-268" edge="1">
          <mxGeometry relative="1" as="geometry">
            <Array as="points">
              <mxPoint x="665" y="440" />
              <mxPoint x="950" y="440" />
              <mxPoint x="950" y="860" />
              <mxPoint x="248" y="860" />
            </Array>
          </mxGeometry>
        </mxCell>
        <mxCell id="AYv8p0lp2vQmEgdWVu1G-273" value="/4" style="edgeLabel;html=1;align=center;verticalAlign=middle;resizable=0;points=[];" parent="AYv8p0lp2vQmEgdWVu1G-272" vertex="1" connectable="0">
          <mxGeometry x="0.8472" y="2" relative="1" as="geometry">
            <mxPoint x="-1" as="offset" />
          </mxGeometry>
        </mxCell>
        <mxCell id="AYv8p0lp2vQmEgdWVu1G-161" value="out_0" style="text;html=1;strokeColor=none;fillColor=none;align=center;verticalAlign=middle;whiteSpace=wrap;rounded=0;" parent="1" vertex="1">
          <mxGeometry x="645" y="381.25" width="40" height="30" as="geometry" />
        </mxCell>
        <mxCell id="AYv8p0lp2vQmEgdWVu1G-162" value="Get Index" style="rounded=0;whiteSpace=wrap;html=1;" parent="1" vertex="1">
          <mxGeometry x="422" y="140" width="165" height="130" as="geometry" />
        </mxCell>
        <mxCell id="AYv8p0lp2vQmEgdWVu1G-163" value="din" style="text;html=1;strokeColor=none;fillColor=none;align=center;verticalAlign=middle;whiteSpace=wrap;rounded=0;" parent="1" vertex="1">
          <mxGeometry x="422" y="140" width="60" height="30" as="geometry" />
        </mxCell>
        <mxCell id="AYv8p0lp2vQmEgdWVu1G-164" value="start_index" style="text;html=1;strokeColor=none;fillColor=none;align=center;verticalAlign=middle;whiteSpace=wrap;rounded=0;" parent="1" vertex="1">
          <mxGeometry x="422" y="170" width="60" height="30" as="geometry" />
        </mxCell>
        <mxCell id="AYv8p0lp2vQmEgdWVu1G-170" style="edgeStyle=orthogonalEdgeStyle;rounded=0;orthogonalLoop=1;jettySize=auto;html=1;entryX=0.5;entryY=0;entryDx=0;entryDy=0;" parent="1" source="AYv8p0lp2vQmEgdWVu1G-166" target="AYv8p0lp2vQmEgdWVu1G-159" edge="1">
          <mxGeometry relative="1" as="geometry" />
        </mxCell>
        <mxCell id="AYv8p0lp2vQmEgdWVu1G-178" value="/4" style="edgeLabel;html=1;align=center;verticalAlign=middle;resizable=0;points=[];" parent="AYv8p0lp2vQmEgdWVu1G-170" vertex="1" connectable="0">
          <mxGeometry x="0.346" y="-1" relative="1" as="geometry">
            <mxPoint as="offset" />
          </mxGeometry>
        </mxCell>
        <mxCell id="AYv8p0lp2vQmEgdWVu1G-166" value="dout" style="text;html=1;strokeColor=none;fillColor=none;align=center;verticalAlign=middle;whiteSpace=wrap;rounded=0;" parent="1" vertex="1">
          <mxGeometry x="527" y="140" width="60" height="30" as="geometry" />
        </mxCell>
        <mxCell id="AYv8p0lp2vQmEgdWVu1G-168" style="edgeStyle=orthogonalEdgeStyle;rounded=0;orthogonalLoop=1;jettySize=auto;html=1;entryX=0;entryY=0.5;entryDx=0;entryDy=0;" parent="1" source="AYv8p0lp2vQmEgdWVu1G-167" target="AYv8p0lp2vQmEgdWVu1G-163" edge="1">
          <mxGeometry relative="1" as="geometry" />
        </mxCell>
        <mxCell id="AYv8p0lp2vQmEgdWVu1G-169" value="/512" style="edgeLabel;html=1;align=center;verticalAlign=middle;resizable=0;points=[];" parent="AYv8p0lp2vQmEgdWVu1G-168" vertex="1" connectable="0">
          <mxGeometry x="-0.3504" relative="1" as="geometry">
            <mxPoint as="offset" />
          </mxGeometry>
        </mxCell>
        <mxCell id="AYv8p0lp2vQmEgdWVu1G-167" value="&lt;font color=&quot;#66cc00&quot;&gt;&lt;span style=&quot;font-size: 14px;&quot;&gt;&lt;b&gt;y_long&lt;br&gt;&lt;/b&gt;&lt;/span&gt;&lt;/font&gt;" style="text;html=1;align=center;verticalAlign=middle;resizable=0;points=[];autosize=1;strokeColor=none;fillColor=none;" parent="1" vertex="1">
          <mxGeometry x="365" y="30" width="70" height="30" as="geometry" />
        </mxCell>
        <mxCell id="AYv8p0lp2vQmEgdWVu1G-176" style="edgeStyle=orthogonalEdgeStyle;rounded=0;orthogonalLoop=1;jettySize=auto;html=1;entryX=0;entryY=0.5;entryDx=0;entryDy=0;" parent="1" source="AYv8p0lp2vQmEgdWVu1G-171" target="AYv8p0lp2vQmEgdWVu1G-164" edge="1">
          <mxGeometry relative="1" as="geometry">
            <Array as="points">
              <mxPoint x="380" y="405" />
              <mxPoint x="380" y="185" />
            </Array>
          </mxGeometry>
        </mxCell>
        <mxCell id="AYv8p0lp2vQmEgdWVu1G-177" value="/9" style="edgeLabel;html=1;align=center;verticalAlign=middle;resizable=0;points=[];" parent="AYv8p0lp2vQmEgdWVu1G-176" vertex="1" connectable="0">
          <mxGeometry x="-0.3394" y="-1" relative="1" as="geometry">
            <mxPoint x="1" as="offset" />
          </mxGeometry>
        </mxCell>
        <mxCell id="AYv8p0lp2vQmEgdWVu1G-171" value="multiply" style="rounded=0;whiteSpace=wrap;html=1;" parent="1" vertex="1">
          <mxGeometry x="295" y="375" width="70" height="60" as="geometry" />
        </mxCell>
        <mxCell id="AYv8p0lp2vQmEgdWVu1G-174" style="edgeStyle=orthogonalEdgeStyle;rounded=0;orthogonalLoop=1;jettySize=auto;html=1;entryX=0;entryY=0.25;entryDx=0;entryDy=0;" parent="1" source="AYv8p0lp2vQmEgdWVu1G-173" target="AYv8p0lp2vQmEgdWVu1G-171" edge="1">
          <mxGeometry relative="1" as="geometry" />
        </mxCell>
        <mxCell id="AYv8p0lp2vQmEgdWVu1G-175" value="/2" style="edgeLabel;html=1;align=center;verticalAlign=middle;resizable=0;points=[];" parent="AYv8p0lp2vQmEgdWVu1G-174" vertex="1" connectable="0">
          <mxGeometry x="-0.2364" relative="1" as="geometry">
            <mxPoint as="offset" />
          </mxGeometry>
        </mxCell>
        <mxCell id="AYv8p0lp2vQmEgdWVu1G-328" value="" style="edgeStyle=orthogonalEdgeStyle;rounded=0;orthogonalLoop=1;jettySize=auto;html=1;" parent="1" source="AYv8p0lp2vQmEgdWVu1G-173" edge="1">
          <mxGeometry relative="1" as="geometry">
            <mxPoint x="320" y="390" as="targetPoint" />
          </mxGeometry>
        </mxCell>
        <mxCell id="AYv8p0lp2vQmEgdWVu1G-173" value="4" style="text;html=1;align=center;verticalAlign=middle;resizable=0;points=[];autosize=1;strokeColor=none;fillColor=none;" parent="1" vertex="1">
          <mxGeometry x="210" y="375" width="30" height="30" as="geometry" />
        </mxCell>
        <mxCell id="AYv8p0lp2vQmEgdWVu1G-180" value="Get Index" style="rounded=0;whiteSpace=wrap;html=1;" parent="1" vertex="1">
          <mxGeometry x="695" y="70" width="165" height="130" as="geometry" />
        </mxCell>
        <mxCell id="AYv8p0lp2vQmEgdWVu1G-181" value="din" style="text;html=1;strokeColor=none;fillColor=none;align=center;verticalAlign=middle;whiteSpace=wrap;rounded=0;" parent="1" vertex="1">
          <mxGeometry x="695" y="70" width="60" height="30" as="geometry" />
        </mxCell>
        <mxCell id="AYv8p0lp2vQmEgdWVu1G-182" value="start_index" style="text;html=1;strokeColor=none;fillColor=none;align=center;verticalAlign=middle;whiteSpace=wrap;rounded=0;" parent="1" vertex="1">
          <mxGeometry x="695" y="100" width="60" height="30" as="geometry" />
        </mxCell>
        <mxCell id="AYv8p0lp2vQmEgdWVu1G-193" style="edgeStyle=orthogonalEdgeStyle;rounded=0;orthogonalLoop=1;jettySize=auto;html=1;entryX=0.5;entryY=0;entryDx=0;entryDy=0;" parent="1" source="AYv8p0lp2vQmEgdWVu1G-183" target="AYv8p0lp2vQmEgdWVu1G-160" edge="1">
          <mxGeometry relative="1" as="geometry">
            <Array as="points">
              <mxPoint x="880" y="85" />
              <mxPoint x="880" y="220" />
              <mxPoint x="705" y="220" />
            </Array>
          </mxGeometry>
        </mxCell>
        <mxCell id="AYv8p0lp2vQmEgdWVu1G-197" value="/4" style="edgeLabel;html=1;align=center;verticalAlign=middle;resizable=0;points=[];" parent="AYv8p0lp2vQmEgdWVu1G-193" vertex="1" connectable="0">
          <mxGeometry x="0.6383" y="1" relative="1" as="geometry">
            <mxPoint as="offset" />
          </mxGeometry>
        </mxCell>
        <mxCell id="AYv8p0lp2vQmEgdWVu1G-183" value="dout" style="text;html=1;strokeColor=none;fillColor=none;align=center;verticalAlign=middle;whiteSpace=wrap;rounded=0;" parent="1" vertex="1">
          <mxGeometry x="800" y="70" width="60" height="30" as="geometry" />
        </mxCell>
        <mxCell id="AYv8p0lp2vQmEgdWVu1G-190" style="edgeStyle=orthogonalEdgeStyle;rounded=0;orthogonalLoop=1;jettySize=auto;html=1;entryX=0;entryY=0.5;entryDx=0;entryDy=0;" parent="1" source="AYv8p0lp2vQmEgdWVu1G-185" target="AYv8p0lp2vQmEgdWVu1G-182" edge="1">
          <mxGeometry relative="1" as="geometry">
            <Array as="points">
              <mxPoint x="360" y="258" />
              <mxPoint x="360" y="115" />
            </Array>
          </mxGeometry>
        </mxCell>
        <mxCell id="AYv8p0lp2vQmEgdWVu1G-191" value="/5" style="edgeLabel;html=1;align=center;verticalAlign=middle;resizable=0;points=[];" parent="AYv8p0lp2vQmEgdWVu1G-190" vertex="1" connectable="0">
          <mxGeometry x="-0.6594" y="2" relative="1" as="geometry">
            <mxPoint as="offset" />
          </mxGeometry>
        </mxCell>
        <mxCell id="AYv8p0lp2vQmEgdWVu1G-185" value="multiply" style="rounded=0;whiteSpace=wrap;html=1;" parent="1" vertex="1">
          <mxGeometry x="265" y="223.75" width="70" height="67.5" as="geometry" />
        </mxCell>
        <mxCell id="AYv8p0lp2vQmEgdWVu1G-186" style="edgeStyle=orthogonalEdgeStyle;rounded=0;orthogonalLoop=1;jettySize=auto;html=1;entryX=0;entryY=0.25;entryDx=0;entryDy=0;" parent="1" target="AYv8p0lp2vQmEgdWVu1G-185" edge="1">
          <mxGeometry relative="1" as="geometry">
            <mxPoint x="210" y="238.75" as="sourcePoint" />
          </mxGeometry>
        </mxCell>
        <mxCell id="AYv8p0lp2vQmEgdWVu1G-187" value="/2" style="edgeLabel;html=1;align=center;verticalAlign=middle;resizable=0;points=[];" parent="AYv8p0lp2vQmEgdWVu1G-186" vertex="1" connectable="0">
          <mxGeometry x="-0.2364" relative="1" as="geometry">
            <mxPoint as="offset" />
          </mxGeometry>
        </mxCell>
        <mxCell id="AYv8p0lp2vQmEgdWVu1G-189" style="edgeStyle=orthogonalEdgeStyle;rounded=0;orthogonalLoop=1;jettySize=auto;html=1;exitX=1.02;exitY=1.067;exitDx=0;exitDy=0;entryX=0;entryY=0.75;entryDx=0;entryDy=0;exitPerimeter=0;" parent="1" source="AYv8p0lp2vQmEgdWVu1G-26" target="AYv8p0lp2vQmEgdWVu1G-185" edge="1">
          <mxGeometry relative="1" as="geometry" />
        </mxCell>
        <mxCell id="AYv8p0lp2vQmEgdWVu1G-195" style="edgeStyle=orthogonalEdgeStyle;rounded=0;orthogonalLoop=1;jettySize=auto;html=1;entryX=0;entryY=0.5;entryDx=0;entryDy=0;" parent="1" source="AYv8p0lp2vQmEgdWVu1G-194" target="AYv8p0lp2vQmEgdWVu1G-181" edge="1">
          <mxGeometry relative="1" as="geometry" />
        </mxCell>
        <mxCell id="AYv8p0lp2vQmEgdWVu1G-196" value="/20" style="edgeLabel;html=1;align=center;verticalAlign=middle;resizable=0;points=[];" parent="AYv8p0lp2vQmEgdWVu1G-195" vertex="1" connectable="0">
          <mxGeometry x="-0.1183" y="-1" relative="1" as="geometry">
            <mxPoint as="offset" />
          </mxGeometry>
        </mxCell>
        <mxCell id="AYv8p0lp2vQmEgdWVu1G-194" value="PKG_F_TAIL" style="text;whiteSpace=wrap;fontStyle=1;fontColor=#3399FF;" parent="1" vertex="1">
          <mxGeometry x="527" y="70" width="75" height="30" as="geometry" />
        </mxCell>
        <mxCell id="AYv8p0lp2vQmEgdWVu1G-198" value="PKG_F_TAIL is a constant = x&quot;80280&quot;" style="text;html=1;strokeColor=none;fillColor=none;align=center;verticalAlign=middle;whiteSpace=wrap;rounded=0;" parent="1" vertex="1">
          <mxGeometry x="510" y="40" width="130" height="30" as="geometry" />
        </mxCell>
        <mxCell id="AYv8p0lp2vQmEgdWVu1G-199" value="Get Index" style="rounded=0;whiteSpace=wrap;html=1;" parent="1" vertex="1">
          <mxGeometry x="400" y="650" width="165" height="130" as="geometry" />
        </mxCell>
        <mxCell id="AYv8p0lp2vQmEgdWVu1G-200" value="din" style="text;html=1;strokeColor=none;fillColor=none;align=center;verticalAlign=middle;whiteSpace=wrap;rounded=0;" parent="1" vertex="1">
          <mxGeometry x="400" y="650" width="60" height="30" as="geometry" />
        </mxCell>
        <mxCell id="AYv8p0lp2vQmEgdWVu1G-201" value="start_index" style="text;html=1;strokeColor=none;fillColor=none;align=center;verticalAlign=middle;whiteSpace=wrap;rounded=0;" parent="1" vertex="1">
          <mxGeometry x="400" y="680" width="60" height="30" as="geometry" />
        </mxCell>
        <mxCell id="AYv8p0lp2vQmEgdWVu1G-270" style="edgeStyle=orthogonalEdgeStyle;rounded=0;orthogonalLoop=1;jettySize=auto;html=1;entryX=0.25;entryY=0;entryDx=0;entryDy=0;" parent="1" source="AYv8p0lp2vQmEgdWVu1G-202" target="AYv8p0lp2vQmEgdWVu1G-268" edge="1">
          <mxGeometry relative="1" as="geometry">
            <Array as="points">
              <mxPoint x="590" y="665" />
              <mxPoint x="590" y="850" />
              <mxPoint x="223" y="850" />
            </Array>
          </mxGeometry>
        </mxCell>
        <mxCell id="AYv8p0lp2vQmEgdWVu1G-271" value="/4" style="edgeLabel;html=1;align=center;verticalAlign=middle;resizable=0;points=[];" parent="AYv8p0lp2vQmEgdWVu1G-270" vertex="1" connectable="0">
          <mxGeometry x="0.6372" y="2" relative="1" as="geometry">
            <mxPoint x="-1" as="offset" />
          </mxGeometry>
        </mxCell>
        <mxCell id="AYv8p0lp2vQmEgdWVu1G-202" value="dout" style="text;html=1;strokeColor=none;fillColor=none;align=center;verticalAlign=middle;whiteSpace=wrap;rounded=0;" parent="1" vertex="1">
          <mxGeometry x="505" y="650" width="60" height="30" as="geometry" />
        </mxCell>
        <mxCell id="AYv8p0lp2vQmEgdWVu1G-203" value="" style="rounded=0;whiteSpace=wrap;html=1;" parent="1" vertex="1">
          <mxGeometry x="640" y="585" width="120" height="60" as="geometry" />
        </mxCell>
        <mxCell id="AYv8p0lp2vQmEgdWVu1G-204" value="" style="triangle;whiteSpace=wrap;html=1;direction=east;" parent="1" vertex="1">
          <mxGeometry x="640" y="625" width="20" height="20" as="geometry" />
        </mxCell>
        <mxCell id="AYv8p0lp2vQmEgdWVu1G-205" value="en" style="text;html=1;strokeColor=none;fillColor=none;align=center;verticalAlign=middle;whiteSpace=wrap;rounded=0;" parent="1" vertex="1">
          <mxGeometry x="640" y="585" width="30" height="20" as="geometry" />
        </mxCell>
        <mxCell id="AYv8p0lp2vQmEgdWVu1G-206" value="rst" style="text;html=1;strokeColor=none;fillColor=none;align=center;verticalAlign=middle;whiteSpace=wrap;rounded=0;" parent="1" vertex="1">
          <mxGeometry x="640" y="605" width="30" height="20" as="geometry" />
        </mxCell>
        <mxCell id="AYv8p0lp2vQmEgdWVu1G-207" value="D" style="text;html=1;strokeColor=none;fillColor=none;align=center;verticalAlign=middle;whiteSpace=wrap;rounded=0;" parent="1" vertex="1">
          <mxGeometry x="670" y="585" width="60" height="20" as="geometry" />
        </mxCell>
        <mxCell id="AYv8p0lp2vQmEgdWVu1G-209" style="edgeStyle=orthogonalEdgeStyle;rounded=0;orthogonalLoop=1;jettySize=auto;html=1;entryX=0;entryY=0.5;entryDx=0;entryDy=0;" parent="1" source="AYv8p0lp2vQmEgdWVu1G-208" target="AYv8p0lp2vQmEgdWVu1G-200" edge="1">
          <mxGeometry relative="1" as="geometry">
            <Array as="points">
              <mxPoint x="700" y="660" />
              <mxPoint x="580" y="660" />
              <mxPoint x="580" y="630" />
              <mxPoint x="380" y="630" />
              <mxPoint x="380" y="665" />
            </Array>
          </mxGeometry>
        </mxCell>
        <mxCell id="AYv8p0lp2vQmEgdWVu1G-275" value="/512" style="edgeLabel;html=1;align=center;verticalAlign=middle;resizable=0;points=[];" parent="AYv8p0lp2vQmEgdWVu1G-209" vertex="1" connectable="0">
          <mxGeometry x="-0.6762" y="1" relative="1" as="geometry">
            <mxPoint x="-1" as="offset" />
          </mxGeometry>
        </mxCell>
        <mxCell id="AYv8p0lp2vQmEgdWVu1G-208" value="Q" style="text;html=1;strokeColor=none;fillColor=none;align=center;verticalAlign=middle;whiteSpace=wrap;rounded=0;" parent="1" vertex="1">
          <mxGeometry x="670" y="625" width="60" height="20" as="geometry" />
        </mxCell>
        <mxCell id="AYv8p0lp2vQmEgdWVu1G-210" value="&lt;br&gt;&lt;br&gt;Replace at Index" style="rounded=0;whiteSpace=wrap;html=1;" parent="1" vertex="1">
          <mxGeometry x="400" y="870" width="165" height="130" as="geometry" />
        </mxCell>
        <mxCell id="AYv8p0lp2vQmEgdWVu1G-274" style="edgeStyle=orthogonalEdgeStyle;rounded=0;orthogonalLoop=1;jettySize=auto;html=1;exitX=0;exitY=0.5;exitDx=0;exitDy=0;" parent="1" source="AYv8p0lp2vQmEgdWVu1G-200" target="AYv8p0lp2vQmEgdWVu1G-211" edge="1">
          <mxGeometry relative="1" as="geometry">
            <Array as="points">
              <mxPoint x="380" y="665" />
              <mxPoint x="380" y="885" />
            </Array>
          </mxGeometry>
        </mxCell>
        <mxCell id="AYv8p0lp2vQmEgdWVu1G-211" value="din" style="text;html=1;strokeColor=none;fillColor=none;align=center;verticalAlign=middle;whiteSpace=wrap;rounded=0;" parent="1" vertex="1">
          <mxGeometry x="400" y="870" width="60" height="30" as="geometry" />
        </mxCell>
        <mxCell id="AYv8p0lp2vQmEgdWVu1G-212" value="dout" style="text;html=1;strokeColor=none;fillColor=none;align=center;verticalAlign=middle;whiteSpace=wrap;rounded=0;" parent="1" vertex="1">
          <mxGeometry x="505" y="870" width="60" height="30" as="geometry" />
        </mxCell>
        <mxCell id="AYv8p0lp2vQmEgdWVu1G-213" value="new_data" style="text;html=1;strokeColor=none;fillColor=none;align=center;verticalAlign=middle;whiteSpace=wrap;rounded=0;" parent="1" vertex="1">
          <mxGeometry x="400" y="900" width="60" height="30" as="geometry" />
        </mxCell>
        <mxCell id="AYv8p0lp2vQmEgdWVu1G-214" value="start_index" style="text;html=1;strokeColor=none;fillColor=none;align=center;verticalAlign=middle;whiteSpace=wrap;rounded=0;" parent="1" vertex="1">
          <mxGeometry x="400" y="950" width="60" height="30" as="geometry" />
        </mxCell>
        <mxCell id="AYv8p0lp2vQmEgdWVu1G-220" style="edgeStyle=orthogonalEdgeStyle;rounded=0;orthogonalLoop=1;jettySize=auto;html=1;exitX=0;exitY=0.75;exitDx=0;exitDy=0;entryX=0;entryY=0.25;entryDx=0;entryDy=0;" parent="1" source="AYv8p0lp2vQmEgdWVu1G-185" target="AYv8p0lp2vQmEgdWVu1G-218" edge="1">
          <mxGeometry relative="1" as="geometry">
            <Array as="points">
              <mxPoint x="200" y="274" />
              <mxPoint x="200" y="673" />
              <mxPoint x="230" y="673" />
            </Array>
          </mxGeometry>
        </mxCell>
        <mxCell id="AYv8p0lp2vQmEgdWVu1G-221" style="edgeStyle=orthogonalEdgeStyle;rounded=0;orthogonalLoop=1;jettySize=auto;html=1;exitX=0.5;exitY=1;exitDx=0;exitDy=0;" parent="1" source="AYv8p0lp2vQmEgdWVu1G-30" target="AYv8p0lp2vQmEgdWVu1G-218" edge="1">
          <mxGeometry relative="1" as="geometry">
            <Array as="points">
              <mxPoint x="129" y="550" />
              <mxPoint x="180" y="550" />
              <mxPoint x="180" y="690" />
            </Array>
          </mxGeometry>
        </mxCell>
        <mxCell id="AYv8p0lp2vQmEgdWVu1G-223" style="edgeStyle=orthogonalEdgeStyle;rounded=0;orthogonalLoop=1;jettySize=auto;html=1;entryX=0;entryY=0.25;entryDx=0;entryDy=0;" parent="1" source="AYv8p0lp2vQmEgdWVu1G-218" target="AYv8p0lp2vQmEgdWVu1G-222" edge="1">
          <mxGeometry relative="1" as="geometry" />
        </mxCell>
        <mxCell id="AYv8p0lp2vQmEgdWVu1G-229" value=",8" style="edgeLabel;html=1;align=center;verticalAlign=middle;resizable=0;points=[];" parent="AYv8p0lp2vQmEgdWVu1G-223" vertex="1" connectable="0">
          <mxGeometry x="-0.4947" relative="1" as="geometry">
            <mxPoint as="offset" />
          </mxGeometry>
        </mxCell>
        <mxCell id="AYv8p0lp2vQmEgdWVu1G-218" value="Add" style="rounded=0;whiteSpace=wrap;html=1;" parent="1" vertex="1">
          <mxGeometry x="240" y="660" width="45" height="50" as="geometry" />
        </mxCell>
        <mxCell id="AYv8p0lp2vQmEgdWVu1G-224" style="edgeStyle=orthogonalEdgeStyle;rounded=0;orthogonalLoop=1;jettySize=auto;html=1;entryX=0;entryY=0.5;entryDx=0;entryDy=0;" parent="1" source="AYv8p0lp2vQmEgdWVu1G-222" target="AYv8p0lp2vQmEgdWVu1G-201" edge="1">
          <mxGeometry relative="1" as="geometry" />
        </mxCell>
        <mxCell id="AYv8p0lp2vQmEgdWVu1G-230" value="/8" style="edgeLabel;html=1;align=center;verticalAlign=middle;resizable=0;points=[];" parent="AYv8p0lp2vQmEgdWVu1G-224" vertex="1" connectable="0">
          <mxGeometry x="-0.4909" y="1" relative="1" as="geometry">
            <mxPoint as="offset" />
          </mxGeometry>
        </mxCell>
        <mxCell id="AYv8p0lp2vQmEgdWVu1G-222" value="Subtact" style="rounded=0;whiteSpace=wrap;html=1;" parent="1" vertex="1">
          <mxGeometry x="315" y="690" width="50" height="50" as="geometry" />
        </mxCell>
        <mxCell id="AYv8p0lp2vQmEgdWVu1G-227" style="edgeStyle=orthogonalEdgeStyle;rounded=0;orthogonalLoop=1;jettySize=auto;html=1;entryX=0;entryY=0.75;entryDx=0;entryDy=0;" parent="1" source="AYv8p0lp2vQmEgdWVu1G-226" target="AYv8p0lp2vQmEgdWVu1G-222" edge="1">
          <mxGeometry relative="1" as="geometry" />
        </mxCell>
        <mxCell id="AYv8p0lp2vQmEgdWVu1G-228" value="/6" style="edgeLabel;html=1;align=center;verticalAlign=middle;resizable=0;points=[];" parent="AYv8p0lp2vQmEgdWVu1G-227" vertex="1" connectable="0">
          <mxGeometry x="-0.1677" y="1" relative="1" as="geometry">
            <mxPoint x="1" y="1" as="offset" />
          </mxGeometry>
        </mxCell>
        <mxCell id="AYv8p0lp2vQmEgdWVu1G-226" value="64" style="text;html=1;align=center;verticalAlign=middle;resizable=0;points=[];autosize=1;strokeColor=none;fillColor=none;" parent="1" vertex="1">
          <mxGeometry x="210" y="728" width="40" height="30" as="geometry" />
        </mxCell>
        <mxCell id="AYv8p0lp2vQmEgdWVu1G-232" value="" style="rounded=0;whiteSpace=wrap;html=1;" parent="1" vertex="1">
          <mxGeometry x="800" y="515" width="120" height="60" as="geometry" />
        </mxCell>
        <mxCell id="AYv8p0lp2vQmEgdWVu1G-233" value="" style="triangle;whiteSpace=wrap;html=1;direction=east;" parent="1" vertex="1">
          <mxGeometry x="800" y="555" width="20" height="20" as="geometry" />
        </mxCell>
        <mxCell id="AYv8p0lp2vQmEgdWVu1G-234" value="en" style="text;html=1;strokeColor=none;fillColor=none;align=center;verticalAlign=middle;whiteSpace=wrap;rounded=0;" parent="1" vertex="1">
          <mxGeometry x="800" y="515" width="30" height="20" as="geometry" />
        </mxCell>
        <mxCell id="AYv8p0lp2vQmEgdWVu1G-235" value="rst" style="text;html=1;strokeColor=none;fillColor=none;align=center;verticalAlign=middle;whiteSpace=wrap;rounded=0;" parent="1" vertex="1">
          <mxGeometry x="800" y="535" width="30" height="20" as="geometry" />
        </mxCell>
        <mxCell id="AYv8p0lp2vQmEgdWVu1G-238" style="edgeStyle=orthogonalEdgeStyle;rounded=0;orthogonalLoop=1;jettySize=auto;html=1;" parent="1" target="AYv8p0lp2vQmEgdWVu1G-236" edge="1">
          <mxGeometry relative="1" as="geometry">
            <mxPoint x="400" y="110" as="sourcePoint" />
            <Array as="points">
              <mxPoint x="400" y="500" />
              <mxPoint x="860" y="500" />
            </Array>
          </mxGeometry>
        </mxCell>
        <mxCell id="AYv8p0lp2vQmEgdWVu1G-240" value="/512" style="edgeLabel;html=1;align=center;verticalAlign=middle;resizable=0;points=[];" parent="AYv8p0lp2vQmEgdWVu1G-238" vertex="1" connectable="0">
          <mxGeometry x="0.3968" y="-2" relative="1" as="geometry">
            <mxPoint x="-39" y="-2" as="offset" />
          </mxGeometry>
        </mxCell>
        <mxCell id="AYv8p0lp2vQmEgdWVu1G-236" value="D" style="text;html=1;strokeColor=none;fillColor=none;align=center;verticalAlign=middle;whiteSpace=wrap;rounded=0;" parent="1" vertex="1">
          <mxGeometry x="830" y="515" width="60" height="20" as="geometry" />
        </mxCell>
        <mxCell id="AYv8p0lp2vQmEgdWVu1G-242" style="edgeStyle=orthogonalEdgeStyle;rounded=0;orthogonalLoop=1;jettySize=auto;html=1;entryX=0.75;entryY=1;entryDx=0;entryDy=0;" parent="1" source="AYv8p0lp2vQmEgdWVu1G-237" target="AYv8p0lp2vQmEgdWVu1G-241" edge="1">
          <mxGeometry relative="1" as="geometry" />
        </mxCell>
        <mxCell id="AYv8p0lp2vQmEgdWVu1G-237" value="Q" style="text;html=1;strokeColor=none;fillColor=none;align=center;verticalAlign=middle;whiteSpace=wrap;rounded=0;" parent="1" vertex="1">
          <mxGeometry x="830" y="555" width="60" height="20" as="geometry" />
        </mxCell>
        <mxCell id="AYv8p0lp2vQmEgdWVu1G-239" value="y_long" style="text;html=1;align=center;verticalAlign=middle;resizable=0;points=[];autosize=1;strokeColor=none;fillColor=none;" parent="1" vertex="1">
          <mxGeometry x="810" y="475" width="60" height="30" as="geometry" />
        </mxCell>
        <mxCell id="AYv8p0lp2vQmEgdWVu1G-243" style="edgeStyle=orthogonalEdgeStyle;rounded=0;orthogonalLoop=1;jettySize=auto;html=1;entryX=0.5;entryY=0;entryDx=0;entryDy=0;" parent="1" source="AYv8p0lp2vQmEgdWVu1G-241" target="AYv8p0lp2vQmEgdWVu1G-207" edge="1">
          <mxGeometry relative="1" as="geometry">
            <Array as="points">
              <mxPoint x="780" y="680" />
              <mxPoint x="780" y="565" />
              <mxPoint x="700" y="565" />
            </Array>
          </mxGeometry>
        </mxCell>
        <mxCell id="AYv8p0lp2vQmEgdWVu1G-245" value="/512" style="edgeLabel;html=1;align=center;verticalAlign=middle;resizable=0;points=[];" parent="AYv8p0lp2vQmEgdWVu1G-243" vertex="1" connectable="0">
          <mxGeometry x="0.4809" y="-1" relative="1" as="geometry">
            <mxPoint as="offset" />
          </mxGeometry>
        </mxCell>
        <mxCell id="AYv8p0lp2vQmEgdWVu1G-241" value="0&lt;br&gt;&lt;br&gt;&lt;br&gt;1" style="shape=trapezoid;perimeter=trapezoidPerimeter;whiteSpace=wrap;html=1;fixedSize=1;direction=north;" parent="1" vertex="1">
          <mxGeometry x="800" y="630" width="30" height="100" as="geometry" />
        </mxCell>
        <mxCell id="AYv8p0lp2vQmEgdWVu1G-244" style="edgeStyle=orthogonalEdgeStyle;rounded=0;orthogonalLoop=1;jettySize=auto;html=1;entryX=0.35;entryY=1.1;entryDx=0;entryDy=0;entryPerimeter=0;" parent="1" source="AYv8p0lp2vQmEgdWVu1G-212" target="AYv8p0lp2vQmEgdWVu1G-241" edge="1">
          <mxGeometry relative="1" as="geometry">
            <Array as="points">
              <mxPoint x="860" y="885" />
              <mxPoint x="860" y="695" />
            </Array>
          </mxGeometry>
        </mxCell>
        <mxCell id="AYv8p0lp2vQmEgdWVu1G-248" style="edgeStyle=orthogonalEdgeStyle;rounded=0;orthogonalLoop=1;jettySize=auto;html=1;entryX=0;entryY=0.5;entryDx=0;entryDy=0;exitX=0.5;exitY=1;exitDx=0;exitDy=0;" parent="1" source="AYv8p0lp2vQmEgdWVu1G-261" target="AYv8p0lp2vQmEgdWVu1G-241" edge="1">
          <mxGeometry relative="1" as="geometry">
            <mxPoint x="780" y="780" as="sourcePoint" />
            <Array as="points">
              <mxPoint x="55" y="160" />
              <mxPoint x="10" y="160" />
              <mxPoint x="10" y="810" />
              <mxPoint x="815" y="810" />
            </Array>
          </mxGeometry>
        </mxCell>
        <mxCell id="AYv8p0lp2vQmEgdWVu1G-256" value="" style="rounded=0;whiteSpace=wrap;html=1;" parent="1" vertex="1">
          <mxGeometry x="-5" y="70" width="120" height="60" as="geometry" />
        </mxCell>
        <mxCell id="AYv8p0lp2vQmEgdWVu1G-257" value="" style="triangle;whiteSpace=wrap;html=1;direction=east;" parent="1" vertex="1">
          <mxGeometry x="-5" y="110" width="20" height="20" as="geometry" />
        </mxCell>
        <mxCell id="AYv8p0lp2vQmEgdWVu1G-258" value="en" style="text;html=1;strokeColor=none;fillColor=none;align=center;verticalAlign=middle;whiteSpace=wrap;rounded=0;" parent="1" vertex="1">
          <mxGeometry x="-5" y="70" width="30" height="20" as="geometry" />
        </mxCell>
        <mxCell id="AYv8p0lp2vQmEgdWVu1G-259" value="rst" style="text;html=1;strokeColor=none;fillColor=none;align=center;verticalAlign=middle;whiteSpace=wrap;rounded=0;" parent="1" vertex="1">
          <mxGeometry x="-5" y="90" width="30" height="20" as="geometry" />
        </mxCell>
        <mxCell id="AYv8p0lp2vQmEgdWVu1G-260" value="D" style="text;html=1;strokeColor=none;fillColor=none;align=center;verticalAlign=middle;whiteSpace=wrap;rounded=0;" parent="1" vertex="1">
          <mxGeometry x="25" y="70" width="60" height="20" as="geometry" />
        </mxCell>
        <mxCell id="AYv8p0lp2vQmEgdWVu1G-264" style="edgeStyle=orthogonalEdgeStyle;rounded=0;orthogonalLoop=1;jettySize=auto;html=1;entryX=0;entryY=0.5;entryDx=0;entryDy=0;" parent="1" source="AYv8p0lp2vQmEgdWVu1G-261" target="AYv8p0lp2vQmEgdWVu1G-23" edge="1">
          <mxGeometry relative="1" as="geometry">
            <Array as="points">
              <mxPoint x="55" y="160" />
              <mxPoint x="40" y="160" />
              <mxPoint x="40" y="200" />
            </Array>
          </mxGeometry>
        </mxCell>
        <mxCell id="AYv8p0lp2vQmEgdWVu1G-261" value="Q" style="text;html=1;strokeColor=none;fillColor=none;align=center;verticalAlign=middle;whiteSpace=wrap;rounded=0;" parent="1" vertex="1">
          <mxGeometry x="25" y="110" width="60" height="20" as="geometry" />
        </mxCell>
        <mxCell id="AYv8p0lp2vQmEgdWVu1G-266" style="edgeStyle=orthogonalEdgeStyle;rounded=0;orthogonalLoop=1;jettySize=auto;html=1;entryX=0;entryY=0.5;entryDx=0;entryDy=0;" parent="1" source="AYv8p0lp2vQmEgdWVu1G-265" target="AYv8p0lp2vQmEgdWVu1G-234" edge="1">
          <mxGeometry relative="1" as="geometry" />
        </mxCell>
        <mxCell id="AYv8p0lp2vQmEgdWVu1G-267" style="edgeStyle=orthogonalEdgeStyle;rounded=0;orthogonalLoop=1;jettySize=auto;html=1;entryX=0;entryY=0.5;entryDx=0;entryDy=0;" parent="1" source="AYv8p0lp2vQmEgdWVu1G-265" target="AYv8p0lp2vQmEgdWVu1G-205" edge="1">
          <mxGeometry relative="1" as="geometry">
            <Array as="points">
              <mxPoint x="620" y="525" />
              <mxPoint x="620" y="595" />
            </Array>
          </mxGeometry>
        </mxCell>
        <mxCell id="AYv8p0lp2vQmEgdWVu1G-265" value="en" style="text;html=1;align=center;verticalAlign=middle;resizable=0;points=[];autosize=1;strokeColor=none;fillColor=none;" parent="1" vertex="1">
          <mxGeometry x="725" y="510" width="40" height="30" as="geometry" />
        </mxCell>
        <mxCell id="AYv8p0lp2vQmEgdWVu1G-269" style="edgeStyle=orthogonalEdgeStyle;rounded=0;orthogonalLoop=1;jettySize=auto;html=1;entryX=0;entryY=0.5;entryDx=0;entryDy=0;" parent="1" source="AYv8p0lp2vQmEgdWVu1G-268" target="AYv8p0lp2vQmEgdWVu1G-213" edge="1">
          <mxGeometry relative="1" as="geometry" />
        </mxCell>
        <mxCell id="AYv8p0lp2vQmEgdWVu1G-268" value="&lt;b&gt;XOR&lt;/b&gt;" style="rounded=0;whiteSpace=wrap;html=1;" parent="1" vertex="1">
          <mxGeometry x="210" y="905" width="50" height="20" as="geometry" />
        </mxCell>
        <mxCell id="AYv8p0lp2vQmEgdWVu1G-287" style="edgeStyle=orthogonalEdgeStyle;rounded=0;orthogonalLoop=1;jettySize=auto;html=1;entryX=0.5;entryY=0;entryDx=0;entryDy=0;" parent="1" source="AYv8p0lp2vQmEgdWVu1G-289" target="AYv8p0lp2vQmEgdWVu1G-290" edge="1">
          <mxGeometry relative="1" as="geometry" />
        </mxCell>
        <mxCell id="AYv8p0lp2vQmEgdWVu1G-288" value="/6" style="edgeLabel;html=1;align=center;verticalAlign=middle;resizable=0;points=[];" parent="AYv8p0lp2vQmEgdWVu1G-287" vertex="1" connectable="0">
          <mxGeometry x="-0.16" relative="1" as="geometry">
            <mxPoint as="offset" />
          </mxGeometry>
        </mxCell>
        <mxCell id="AYv8p0lp2vQmEgdWVu1G-289" value="Counter++" style="rounded=0;whiteSpace=wrap;html=1;" parent="1" vertex="1">
          <mxGeometry x="45" y="940" width="120" height="60" as="geometry" />
        </mxCell>
        <mxCell id="AYv8p0lp2vQmEgdWVu1G-316" style="edgeStyle=orthogonalEdgeStyle;rounded=0;orthogonalLoop=1;jettySize=auto;html=1;entryX=0.5;entryY=1;entryDx=0;entryDy=0;" parent="1" source="AYv8p0lp2vQmEgdWVu1G-290" target="AYv8p0lp2vQmEgdWVu1G-313" edge="1">
          <mxGeometry relative="1" as="geometry">
            <Array as="points">
              <mxPoint x="106" y="1190" />
              <mxPoint x="20" y="1190" />
            </Array>
          </mxGeometry>
        </mxCell>
        <mxCell id="AYv8p0lp2vQmEgdWVu1G-290" value="&lt;b&gt;==&amp;nbsp; 63&lt;/b&gt;" style="rounded=0;whiteSpace=wrap;html=1;" parent="1" vertex="1">
          <mxGeometry x="70.5" y="1110" width="70" height="60" as="geometry" />
        </mxCell>
        <mxCell id="AYv8p0lp2vQmEgdWVu1G-291" value="" style="triangle;whiteSpace=wrap;html=1;direction=east;" parent="1" vertex="1">
          <mxGeometry x="45" y="980" width="20" height="20" as="geometry" />
        </mxCell>
        <mxCell id="AYv8p0lp2vQmEgdWVu1G-292" value="ld" style="text;html=1;strokeColor=none;fillColor=none;align=center;verticalAlign=middle;whiteSpace=wrap;rounded=0;" parent="1" vertex="1">
          <mxGeometry x="45" y="940" width="35" height="20" as="geometry" />
        </mxCell>
        <mxCell id="AYv8p0lp2vQmEgdWVu1G-293" value="en" style="text;html=1;strokeColor=none;fillColor=none;align=center;verticalAlign=middle;whiteSpace=wrap;rounded=0;" parent="1" vertex="1">
          <mxGeometry x="45" y="960" width="35" height="20" as="geometry" />
        </mxCell>
        <mxCell id="AYv8p0lp2vQmEgdWVu1G-294" value="D" style="text;html=1;strokeColor=none;fillColor=none;align=center;verticalAlign=middle;whiteSpace=wrap;rounded=0;" parent="1" vertex="1">
          <mxGeometry x="87.5" y="940" width="35" height="20" as="geometry" />
        </mxCell>
        <mxCell id="AYv8p0lp2vQmEgdWVu1G-295" value="idx_wr" style="text;html=1;align=center;verticalAlign=middle;resizable=0;points=[];autosize=1;strokeColor=none;fillColor=none;" parent="1" vertex="1">
          <mxGeometry x="45" y="1030" width="60" height="30" as="geometry" />
        </mxCell>
        <mxCell id="AYv8p0lp2vQmEgdWVu1G-296" style="edgeStyle=orthogonalEdgeStyle;rounded=0;orthogonalLoop=1;jettySize=auto;html=1;entryX=0.5;entryY=0;entryDx=0;entryDy=0;" parent="1" source="AYv8p0lp2vQmEgdWVu1G-298" target="AYv8p0lp2vQmEgdWVu1G-294" edge="1">
          <mxGeometry relative="1" as="geometry" />
        </mxCell>
        <mxCell id="AYv8p0lp2vQmEgdWVu1G-297" value="/7" style="edgeLabel;html=1;align=center;verticalAlign=middle;resizable=0;points=[];" parent="AYv8p0lp2vQmEgdWVu1G-296" vertex="1" connectable="0">
          <mxGeometry x="-0.1605" y="-1" relative="1" as="geometry">
            <mxPoint as="offset" />
          </mxGeometry>
        </mxCell>
        <mxCell id="AYv8p0lp2vQmEgdWVu1G-298" value="0" style="text;html=1;align=center;verticalAlign=middle;resizable=0;points=[];autosize=1;strokeColor=none;fillColor=none;" parent="1" vertex="1">
          <mxGeometry x="90.5" y="870" width="30" height="30" as="geometry" />
        </mxCell>
        <mxCell id="AYv8p0lp2vQmEgdWVu1G-304" value="Get Index" style="rounded=0;whiteSpace=wrap;html=1;" parent="1" vertex="1">
          <mxGeometry x="410" y="1090" width="165" height="130" as="geometry" />
        </mxCell>
        <mxCell id="AYv8p0lp2vQmEgdWVu1G-326" style="edgeStyle=orthogonalEdgeStyle;rounded=0;orthogonalLoop=1;jettySize=auto;html=1;exitX=0;exitY=0.5;exitDx=0;exitDy=0;" parent="1" source="AYv8p0lp2vQmEgdWVu1G-211" target="AYv8p0lp2vQmEgdWVu1G-305" edge="1">
          <mxGeometry relative="1" as="geometry">
            <Array as="points">
              <mxPoint x="380" y="885" />
              <mxPoint x="380" y="1105" />
            </Array>
          </mxGeometry>
        </mxCell>
        <mxCell id="AYv8p0lp2vQmEgdWVu1G-305" value="din" style="text;html=1;strokeColor=none;fillColor=none;align=center;verticalAlign=middle;whiteSpace=wrap;rounded=0;" parent="1" vertex="1">
          <mxGeometry x="410" y="1090" width="60" height="30" as="geometry" />
        </mxCell>
        <mxCell id="AYv8p0lp2vQmEgdWVu1G-306" value="start_index" style="text;html=1;strokeColor=none;fillColor=none;align=center;verticalAlign=middle;whiteSpace=wrap;rounded=0;" parent="1" vertex="1">
          <mxGeometry x="410" y="1120" width="60" height="30" as="geometry" />
        </mxCell>
        <mxCell id="AYv8p0lp2vQmEgdWVu1G-307" value="dout" style="text;html=1;strokeColor=none;fillColor=none;align=center;verticalAlign=middle;whiteSpace=wrap;rounded=0;" parent="1" vertex="1">
          <mxGeometry x="515" y="1090" width="60" height="30" as="geometry" />
        </mxCell>
        <mxCell id="AYv8p0lp2vQmEgdWVu1G-318" style="edgeStyle=orthogonalEdgeStyle;rounded=0;orthogonalLoop=1;jettySize=auto;html=1;entryX=0;entryY=0.25;entryDx=0;entryDy=0;" parent="1" source="AYv8p0lp2vQmEgdWVu1G-312" target="AYv8p0lp2vQmEgdWVu1G-293" edge="1">
          <mxGeometry relative="1" as="geometry" />
        </mxCell>
        <mxCell id="AYv8p0lp2vQmEgdWVu1G-312" value="&lt;b&gt;AND&lt;/b&gt;" style="rounded=0;whiteSpace=wrap;html=1;" parent="1" vertex="1">
          <mxGeometry x="-50" y="955" width="50" height="20" as="geometry" />
        </mxCell>
        <mxCell id="AYv8p0lp2vQmEgdWVu1G-317" style="edgeStyle=orthogonalEdgeStyle;rounded=0;orthogonalLoop=1;jettySize=auto;html=1;entryX=0.25;entryY=0;entryDx=0;entryDy=0;" parent="1" source="AYv8p0lp2vQmEgdWVu1G-313" target="AYv8p0lp2vQmEgdWVu1G-312" edge="1">
          <mxGeometry relative="1" as="geometry">
            <Array as="points">
              <mxPoint x="-60" y="1070" />
              <mxPoint x="-60" y="930" />
              <mxPoint x="-37" y="930" />
            </Array>
          </mxGeometry>
        </mxCell>
        <mxCell id="AYv8p0lp2vQmEgdWVu1G-313" value="&lt;b&gt;NOT&lt;/b&gt;" style="rounded=0;whiteSpace=wrap;html=1;" parent="1" vertex="1">
          <mxGeometry x="-5" y="1060" width="50" height="20" as="geometry" />
        </mxCell>
        <mxCell id="AYv8p0lp2vQmEgdWVu1G-321" value="&lt;font color=&quot;#ff0000&quot;&gt;&lt;span style=&quot;font-size: 14px;&quot;&gt;&lt;b&gt;y&lt;/b&gt;&lt;/span&gt;&lt;/font&gt;" style="text;html=1;align=center;verticalAlign=middle;resizable=0;points=[];autosize=1;strokeColor=none;fillColor=none;" parent="1" vertex="1">
          <mxGeometry x="665" y="1091" width="30" height="30" as="geometry" />
        </mxCell>
        <mxCell id="AYv8p0lp2vQmEgdWVu1G-323" style="edgeStyle=orthogonalEdgeStyle;rounded=0;orthogonalLoop=1;jettySize=auto;html=1;exitX=1;exitY=0.5;exitDx=0;exitDy=0;" parent="1" source="AYv8p0lp2vQmEgdWVu1G-312" target="AYv8p0lp2vQmEgdWVu1G-322" edge="1">
          <mxGeometry relative="1" as="geometry" />
        </mxCell>
        <mxCell id="AYv8p0lp2vQmEgdWVu1G-322" value="&lt;font color=&quot;#ff0000&quot;&gt;&lt;span style=&quot;font-size: 14px;&quot;&gt;&lt;b&gt;rd_y&lt;/b&gt;&lt;/span&gt;&lt;/font&gt;" style="text;html=1;align=center;verticalAlign=middle;resizable=0;points=[];autosize=1;strokeColor=none;fillColor=none;" parent="1" vertex="1">
          <mxGeometry x="-5" y="1010" width="50" height="30" as="geometry" />
        </mxCell>
        <mxCell id="AYv8p0lp2vQmEgdWVu1G-324" style="edgeStyle=orthogonalEdgeStyle;rounded=0;orthogonalLoop=1;jettySize=auto;html=1;entryX=-0.017;entryY=0.45;entryDx=0;entryDy=0;entryPerimeter=0;" parent="1" source="AYv8p0lp2vQmEgdWVu1G-307" target="AYv8p0lp2vQmEgdWVu1G-321" edge="1">
          <mxGeometry relative="1" as="geometry" />
        </mxCell>
        <mxCell id="AYv8p0lp2vQmEgdWVu1G-325" value="/4" style="edgeLabel;html=1;align=center;verticalAlign=middle;resizable=0;points=[];" parent="AYv8p0lp2vQmEgdWVu1G-324" vertex="1" connectable="0">
          <mxGeometry x="0.0891" y="-2" relative="1" as="geometry">
            <mxPoint y="-1" as="offset" />
          </mxGeometry>
        </mxCell>
        <mxCell id="AYv8p0lp2vQmEgdWVu1G-334" style="edgeStyle=orthogonalEdgeStyle;rounded=0;orthogonalLoop=1;jettySize=auto;html=1;exitX=0.5;exitY=1;exitDx=0;exitDy=0;entryX=0;entryY=0.75;entryDx=0;entryDy=0;" parent="1" source="AYv8p0lp2vQmEgdWVu1G-289" target="AYv8p0lp2vQmEgdWVu1G-329" edge="1">
          <mxGeometry relative="1" as="geometry">
            <Array as="points">
              <mxPoint x="105" y="1080" />
              <mxPoint x="160" y="1080" />
              <mxPoint x="160" y="1150" />
            </Array>
          </mxGeometry>
        </mxCell>
        <mxCell id="AYv8p0lp2vQmEgdWVu1G-335" style="edgeStyle=orthogonalEdgeStyle;rounded=0;orthogonalLoop=1;jettySize=auto;html=1;entryX=0;entryY=0.5;entryDx=0;entryDy=0;" parent="1" source="AYv8p0lp2vQmEgdWVu1G-329" target="AYv8p0lp2vQmEgdWVu1G-306" edge="1">
          <mxGeometry relative="1" as="geometry" />
        </mxCell>
        <mxCell id="AYv8p0lp2vQmEgdWVu1G-336" value="/8" style="edgeLabel;html=1;align=center;verticalAlign=middle;resizable=0;points=[];" parent="AYv8p0lp2vQmEgdWVu1G-335" vertex="1" connectable="0">
          <mxGeometry x="-0.1545" y="-1" relative="1" as="geometry">
            <mxPoint x="-1" as="offset" />
          </mxGeometry>
        </mxCell>
        <mxCell id="AYv8p0lp2vQmEgdWVu1G-329" value="multiply" style="rounded=0;whiteSpace=wrap;html=1;" parent="1" vertex="1">
          <mxGeometry x="285" y="1105" width="70" height="60" as="geometry" />
        </mxCell>
        <mxCell id="AYv8p0lp2vQmEgdWVu1G-330" style="edgeStyle=orthogonalEdgeStyle;rounded=0;orthogonalLoop=1;jettySize=auto;html=1;entryX=0;entryY=0.25;entryDx=0;entryDy=0;" parent="1" target="AYv8p0lp2vQmEgdWVu1G-329" edge="1">
          <mxGeometry relative="1" as="geometry">
            <mxPoint x="230" y="1120" as="sourcePoint" />
          </mxGeometry>
        </mxCell>
        <mxCell id="AYv8p0lp2vQmEgdWVu1G-331" value="/2" style="edgeLabel;html=1;align=center;verticalAlign=middle;resizable=0;points=[];" parent="AYv8p0lp2vQmEgdWVu1G-330" vertex="1" connectable="0">
          <mxGeometry x="-0.2364" relative="1" as="geometry">
            <mxPoint as="offset" />
          </mxGeometry>
        </mxCell>
        <mxCell id="AYv8p0lp2vQmEgdWVu1G-333" value="4" style="text;html=1;align=center;verticalAlign=middle;resizable=0;points=[];autosize=1;strokeColor=none;fillColor=none;" parent="1" vertex="1">
          <mxGeometry x="200" y="1105" width="30" height="30" as="geometry" />
        </mxCell>
        <mxCell id="AYv8p0lp2vQmEgdWVu1G-340" style="edgeStyle=orthogonalEdgeStyle;rounded=0;orthogonalLoop=1;jettySize=auto;html=1;entryX=0;entryY=0.5;entryDx=0;entryDy=0;" parent="1" source="AYv8p0lp2vQmEgdWVu1G-338" target="AYv8p0lp2vQmEgdWVu1G-35" edge="1">
          <mxGeometry relative="1" as="geometry" />
        </mxCell>
        <mxCell id="AYv8p0lp2vQmEgdWVu1G-341" style="edgeStyle=orthogonalEdgeStyle;rounded=0;orthogonalLoop=1;jettySize=auto;html=1;entryX=0;entryY=0.5;entryDx=0;entryDy=0;" parent="1" source="AYv8p0lp2vQmEgdWVu1G-338" target="AYv8p0lp2vQmEgdWVu1G-292" edge="1">
          <mxGeometry relative="1" as="geometry">
            <Array as="points">
              <mxPoint x="-30" y="900" />
              <mxPoint x="20" y="900" />
              <mxPoint x="20" y="950" />
            </Array>
          </mxGeometry>
        </mxCell>
        <mxCell id="AYv8p0lp2vQmEgdWVu1G-338" value="&lt;font color=&quot;#66cc00&quot;&gt;&lt;span style=&quot;font-size: 14px;&quot;&gt;&lt;b&gt;rst&lt;br&gt;&lt;/b&gt;&lt;/span&gt;&lt;/font&gt;" style="text;html=1;align=center;verticalAlign=middle;resizable=0;points=[];autosize=1;strokeColor=none;fillColor=none;" parent="1" vertex="1">
          <mxGeometry x="-60" y="455" width="40" height="30" as="geometry" />
        </mxCell>
      </root>
    </mxGraphModel>
  </diagram>
</mxfile>
